<?xml version="1.0" encoding="utf-8"?>
<!-- Generator: Adobe Illustrator 26.5.0, SVG Export Plug-In . SVG Version: 6.00 Build 0)  -->
<svg version="1.1" id="Capa_1" xmlns="http://www.w3.org/2000/svg" xmlns:xlink="http://www.w3.org/1999/xlink" x="0px" y="0px"
	 viewBox="0 0 571.2 500.2" style="enable-background:new 0 0 571.2 500.2;" xml:space="preserve">
<style type="text/css">
	.st0{display:none;}
	.st1{display:inline;fill:#131211;}
	.st2{display:inline;}
	.st3{fill:none;stroke:#1CA1BF;stroke-width:0.5;stroke-miterlimit:10;}
	.st4{display:inline;fill:none;stroke:#1CA1BF;stroke-width:0.5;stroke-miterlimit:10;}
	.st5{display:none;fill:#131211;}
	.st6{fill:#131211;}
	.st7{fill:#D91942;}
</style>
<g id="clasico">
</g>
<g id="medidas_2_" class="st0">
	<rect x="68" y="144.6" class="st1" width="49.3" height="12"/>
	<rect x="279.5" y="331.1" class="st1" width="12" height="49.3"/>
	<rect x="453.7" y="144.2" class="st1" width="49.3" height="12"/>
	<rect x="18.7" y="144.6" class="st1" width="49.3" height="12"/>
	<rect x="503.2" y="144.2" class="st1" width="49.3" height="12"/>
</g>
<g id="Grilla_2_" class="st0">
	<g class="st2">
		<rect x="104.8" y="32.2" class="st3" width="174.3" height="174.3"/>
		<line class="st3" x1="104.8" y1="181.6" x2="279.2" y2="181.6"/>
		<line class="st3" x1="104.8" y1="169.2" x2="279.2" y2="169.2"/>
		<line class="st3" x1="104.8" y1="194.1" x2="279.2" y2="194.1"/>
		<line class="st3" x1="104.8" y1="156.7" x2="279.2" y2="156.7"/>
		<line class="st3" x1="104.8" y1="144.3" x2="279.2" y2="144.3"/>
		<line class="st3" x1="104.8" y1="131.8" x2="279.2" y2="131.8"/>
		<line class="st3" x1="104.8" y1="119.4" x2="279.2" y2="119.4"/>
		<line class="st3" x1="104.8" y1="106.9" x2="279.2" y2="106.9"/>
		<line class="st3" x1="104.8" y1="94.5" x2="279.2" y2="94.5"/>
		<line class="st3" x1="104.8" y1="82" x2="279.2" y2="82"/>
		<line class="st3" x1="104.8" y1="69.6" x2="279.2" y2="69.6"/>
		<line class="st3" x1="104.8" y1="57.1" x2="279.2" y2="57.1"/>
		<line class="st3" x1="104.8" y1="44.7" x2="279.2" y2="44.7"/>
		<line class="st3" x1="254.3" y1="32.2" x2="254.3" y2="206.5"/>
		<line class="st3" x1="241.8" y1="32.2" x2="241.8" y2="206.5"/>
		<line class="st3" x1="266.7" y1="32.2" x2="266.7" y2="206.5"/>
		<line class="st3" x1="229.4" y1="32.2" x2="229.4" y2="206.5"/>
		<line class="st3" x1="216.9" y1="32.2" x2="216.9" y2="206.5"/>
		<line class="st3" x1="204.5" y1="32.2" x2="204.5" y2="206.5"/>
		<line class="st3" x1="192" y1="32.2" x2="192" y2="206.5"/>
		<line class="st3" x1="179.6" y1="32.2" x2="179.6" y2="206.5"/>
		<line class="st3" x1="167.1" y1="32.2" x2="167.1" y2="206.5"/>
		<line class="st3" x1="154.6" y1="32.2" x2="154.6" y2="206.5"/>
		<line class="st3" x1="142.2" y1="32.2" x2="142.2" y2="206.5"/>
		<line class="st3" x1="129.7" y1="32.2" x2="129.7" y2="206.5"/>
		<line class="st3" x1="117.3" y1="32.2" x2="117.3" y2="206.5"/>
	</g>
	<g class="st2">
		<polyline class="st3" points="104.8,57.1 129.7,32.2 154.6,57.1 179.6,32.2 204.5,57.1 229.4,32.2 254.3,57.1 279.2,32.2 		"/>
		<polyline class="st3" points="104.8,82 129.7,57.1 154.6,82 179.6,57.1 204.5,82 229.4,57.1 254.3,82 279.2,57.1 		"/>
		<polyline class="st3" points="104.8,106.9 129.7,82 154.6,106.9 179.6,82 204.5,106.9 229.4,82 254.3,106.9 279.2,82 		"/>
		<polyline class="st3" points="104.8,131.8 129.7,106.9 154.6,131.8 179.6,106.9 204.5,131.8 229.4,106.9 254.3,131.8 279.2,106.9 
					"/>
		<polyline class="st3" points="104.8,156.7 129.7,131.8 154.6,156.7 179.6,131.8 204.5,156.7 229.4,131.8 254.3,156.7 279.2,131.8 
					"/>
		<polyline class="st3" points="104.8,181.6 129.7,156.7 154.6,181.6 179.6,156.7 204.5,181.6 229.4,156.7 254.3,181.6 279.2,156.7 
					"/>
		<polyline class="st3" points="104.8,206.5 129.7,181.6 154.6,206.5 179.6,181.6 204.5,206.5 229.4,181.6 254.3,206.5 279.2,181.6 
					"/>
	</g>
	<g class="st2">
		<polyline class="st3" points="279.2,57.1 254.3,32.2 229.4,57.1 204.5,32.2 179.6,57.1 154.6,32.2 129.7,57.1 104.8,32.2 		"/>
		<polyline class="st3" points="279.2,82 254.3,57.1 229.4,82 204.5,57.1 179.6,82 154.6,57.1 129.7,82 104.8,57.1 		"/>
		<polyline class="st3" points="279.2,106.9 254.3,82 229.4,106.9 204.5,82 179.6,106.9 154.6,82 129.7,106.9 104.8,82 		"/>
		<polyline class="st3" points="279.2,131.8 254.3,106.9 229.4,131.8 204.5,106.9 179.6,131.8 154.6,106.9 129.7,131.8 104.8,106.9 
					"/>
		<polyline class="st3" points="279.2,156.7 254.3,131.8 229.4,156.7 204.5,131.8 179.6,156.7 154.6,131.8 129.7,156.7 104.8,131.8 
					"/>
		<polyline class="st3" points="279.2,181.6 254.3,156.7 229.4,181.6 204.5,156.7 179.6,181.6 154.6,156.7 129.7,181.6 104.8,156.7 
					"/>
		<polyline class="st3" points="279.2,206.5 254.3,181.6 229.4,206.5 204.5,181.6 179.6,206.5 154.6,181.6 129.7,206.5 104.8,181.6 
					"/>
	</g>
	<g class="st2">
		<rect x="279.2" y="206.5" class="st3" width="174.3" height="174.3"/>
		<line class="st3" x1="279.2" y1="356" x2="453.5" y2="356"/>
		<line class="st3" x1="279.2" y1="343.5" x2="453.5" y2="343.5"/>
		<line class="st3" x1="279.2" y1="368.4" x2="453.5" y2="368.4"/>
		<line class="st3" x1="279.2" y1="331.1" x2="453.5" y2="331.1"/>
		<line class="st3" x1="279.2" y1="318.6" x2="453.5" y2="318.6"/>
		<line class="st3" x1="279.2" y1="306.2" x2="453.5" y2="306.2"/>
		<line class="st3" x1="279.2" y1="293.7" x2="453.5" y2="293.7"/>
		<line class="st3" x1="279.2" y1="281.2" x2="453.5" y2="281.2"/>
		<line class="st3" x1="279.2" y1="268.8" x2="453.5" y2="268.8"/>
		<line class="st3" x1="279.2" y1="256.4" x2="453.5" y2="256.4"/>
		<line class="st3" x1="279.2" y1="243.9" x2="453.5" y2="243.9"/>
		<line class="st3" x1="279.2" y1="231.4" x2="453.5" y2="231.4"/>
		<line class="st3" x1="279.2" y1="219" x2="453.5" y2="219"/>
		<line class="st3" x1="428.6" y1="206.5" x2="428.6" y2="380.9"/>
		<line class="st3" x1="416.1" y1="206.5" x2="416.1" y2="380.9"/>
		<line class="st3" x1="441.1" y1="206.5" x2="441.1" y2="380.9"/>
		<line class="st3" x1="403.7" y1="206.5" x2="403.7" y2="380.9"/>
		<line class="st3" x1="391.2" y1="206.5" x2="391.2" y2="380.9"/>
		<line class="st3" x1="378.8" y1="206.5" x2="378.8" y2="380.9"/>
		<line class="st3" x1="366.3" y1="206.5" x2="366.3" y2="380.9"/>
		<line class="st3" x1="353.9" y1="206.5" x2="353.9" y2="380.9"/>
		<line class="st3" x1="341.4" y1="206.5" x2="341.4" y2="380.9"/>
		<line class="st3" x1="329" y1="206.5" x2="329" y2="380.9"/>
		<line class="st3" x1="316.5" y1="206.5" x2="316.5" y2="380.9"/>
		<line class="st3" x1="304.1" y1="206.5" x2="304.1" y2="380.9"/>
		<line class="st3" x1="291.6" y1="206.5" x2="291.6" y2="380.9"/>
	</g>
	<g class="st2">
		<polyline class="st3" points="279.2,231.4 304.1,206.5 329,231.4 353.9,206.5 378.8,231.4 403.7,206.5 428.6,231.4 453.5,206.5 		
			"/>
		<polyline class="st3" points="279.2,256.4 304.1,231.4 329,256.4 353.9,231.4 378.8,256.4 403.7,231.4 428.6,256.4 453.5,231.4 		
			"/>
		<polyline class="st3" points="279.2,281.2 304.1,256.4 329,281.2 353.9,256.4 378.8,281.2 403.7,256.4 428.6,281.2 453.5,256.4 		
			"/>
		<polyline class="st3" points="279.2,306.1 304.1,281.2 329,306.1 353.9,281.2 378.8,306.1 403.7,281.2 428.6,306.1 453.5,281.2 		
			"/>
		<polyline class="st3" points="279.2,331.1 304.1,306.1 329,331.1 353.9,306.1 378.8,331.1 403.7,306.1 428.6,331.1 453.5,306.1 		
			"/>
		<polyline class="st3" points="279.2,356 304.1,331.1 329,356 353.9,331.1 378.8,356 403.7,331.1 428.6,356 453.5,331.1 		"/>
		<polyline class="st3" points="279.2,380.9 304.1,356 329,380.9 353.9,356 378.8,380.9 403.7,356 428.6,380.9 453.5,356 		"/>
	</g>
	<g class="st2">
		<polyline class="st3" points="453.5,231.4 428.6,206.5 403.7,231.4 378.8,206.5 353.9,231.4 329,206.5 304.1,231.4 279.2,206.5 		
			"/>
		<polyline class="st3" points="453.5,256.4 428.6,231.4 403.7,256.4 378.8,231.4 353.9,256.4 329,231.4 304.1,256.4 279.2,231.4 		
			"/>
		<polyline class="st3" points="453.5,281.2 428.6,256.4 403.7,281.2 378.8,256.4 353.9,281.2 329,256.4 304.1,281.2 279.2,256.4 		
			"/>
		<polyline class="st3" points="453.5,306.1 428.6,281.2 403.7,306.1 378.8,281.2 353.9,306.1 329,281.2 304.1,306.1 279.2,281.2 		
			"/>
		<polyline class="st3" points="453.5,331.1 428.6,306.1 403.7,331.1 378.8,306.1 353.9,331.1 329,306.1 304.1,331.1 279.2,306.1 		
			"/>
		<polyline class="st3" points="453.5,356 428.6,331.1 403.7,356 378.8,331.1 353.9,356 329,331.1 304.1,356 279.2,331.1 		"/>
		<polyline class="st3" points="453.5,380.9 428.6,356 403.7,380.9 378.8,356 353.9,380.9 329,356 304.1,380.9 279.2,356 		"/>
	</g>
	<g class="st2">
		<rect x="104.8" y="206.5" class="st3" width="174.3" height="174.3"/>
		<line class="st3" x1="104.8" y1="356" x2="279.2" y2="356"/>
		<line class="st3" x1="104.8" y1="343.5" x2="279.2" y2="343.5"/>
		<line class="st3" x1="104.8" y1="368.4" x2="279.2" y2="368.4"/>
		<line class="st3" x1="104.8" y1="331.1" x2="279.2" y2="331.1"/>
		<line class="st3" x1="104.8" y1="318.6" x2="279.2" y2="318.6"/>
		<line class="st3" x1="104.8" y1="306.1" x2="279.2" y2="306.1"/>
		<line class="st3" x1="104.8" y1="293.7" x2="279.2" y2="293.7"/>
		<line class="st3" x1="104.8" y1="281.2" x2="279.2" y2="281.2"/>
		<line class="st3" x1="104.8" y1="268.8" x2="279.2" y2="268.8"/>
		<line class="st3" x1="104.8" y1="256.3" x2="279.2" y2="256.3"/>
		<line class="st3" x1="104.8" y1="243.9" x2="279.2" y2="243.9"/>
		<line class="st3" x1="104.8" y1="231.4" x2="279.2" y2="231.4"/>
		<line class="st3" x1="104.8" y1="219" x2="279.2" y2="219"/>
		<line class="st3" x1="254.3" y1="206.5" x2="254.3" y2="380.9"/>
		<line class="st3" x1="241.8" y1="206.5" x2="241.8" y2="380.9"/>
		<line class="st3" x1="266.7" y1="206.5" x2="266.7" y2="380.9"/>
		<line class="st3" x1="229.4" y1="206.5" x2="229.4" y2="380.9"/>
		<line class="st3" x1="216.9" y1="206.5" x2="216.9" y2="380.9"/>
		<line class="st3" x1="204.5" y1="206.5" x2="204.5" y2="380.9"/>
		<line class="st3" x1="192" y1="206.5" x2="192" y2="380.9"/>
		<line class="st3" x1="179.6" y1="206.5" x2="179.6" y2="380.9"/>
		<line class="st3" x1="167.1" y1="206.5" x2="167.1" y2="380.9"/>
		<line class="st3" x1="154.6" y1="206.5" x2="154.6" y2="380.9"/>
		<line class="st3" x1="142.2" y1="206.5" x2="142.2" y2="380.9"/>
		<line class="st3" x1="129.7" y1="206.5" x2="129.7" y2="380.9"/>
		<line class="st3" x1="117.3" y1="206.5" x2="117.3" y2="380.9"/>
	</g>
	<g class="st2">
		<polyline class="st3" points="104.8,231.4 129.7,206.5 154.6,231.4 179.6,206.5 204.5,231.4 229.4,206.5 254.3,231.4 279.2,206.5 
					"/>
		<polyline class="st3" points="104.8,256.3 129.7,231.4 154.6,256.3 179.6,231.4 204.5,256.3 229.4,231.4 254.3,256.3 279.2,231.4 
					"/>
		<polyline class="st3" points="104.8,281.2 129.7,256.3 154.6,281.2 179.6,256.3 204.5,281.2 229.4,256.3 254.3,281.2 279.2,256.3 
					"/>
		<polyline class="st3" points="104.8,306.1 129.7,281.2 154.6,306.1 179.6,281.2 204.5,306.1 229.4,281.2 254.3,306.1 279.2,281.2 
					"/>
		<polyline class="st3" points="104.8,331 129.7,306.1 154.6,331 179.6,306.1 204.5,331 229.4,306.1 254.3,331 279.2,306.1 		"/>
		<polyline class="st3" points="104.8,356 129.7,331 154.6,356 179.6,331 204.5,356 229.4,331 254.3,356 279.2,331 		"/>
		<polyline class="st3" points="104.8,380.9 129.7,356 154.6,380.9 179.6,356 204.5,380.9 229.4,356 254.3,380.9 279.2,356 		"/>
	</g>
	<g class="st2">
		<polyline class="st3" points="279.2,231.4 254.3,206.5 229.4,231.4 204.5,206.5 179.6,231.4 154.6,206.5 129.7,231.4 104.8,206.5 
					"/>
		<polyline class="st3" points="279.2,256.3 254.3,231.4 229.4,256.3 204.5,231.4 179.6,256.3 154.6,231.4 129.7,256.3 104.8,231.4 
					"/>
		<polyline class="st3" points="279.2,281.2 254.3,256.3 229.4,281.2 204.5,256.3 179.6,281.2 154.6,256.3 129.7,281.2 104.8,256.3 
					"/>
		<polyline class="st3" points="279.2,306.1 254.3,281.2 229.4,306.1 204.5,281.2 179.6,306.1 154.6,281.2 129.7,306.1 104.8,281.2 
					"/>
		<polyline class="st3" points="279.2,331 254.3,306.1 229.4,331 204.5,306.1 179.6,331 154.6,306.1 129.7,331 104.8,306.1 		"/>
		<polyline class="st3" points="279.2,356 254.3,331 229.4,356 204.5,331 179.6,356 154.6,331 129.7,356 104.8,331 		"/>
		<polyline class="st3" points="279.2,380.9 254.3,356 229.4,380.9 204.5,356 179.6,380.9 154.6,356 129.7,380.9 104.8,356 		"/>
	</g>
	<g class="st2">
		<rect x="279.2" y="32.2" class="st3" width="174.3" height="174.3"/>
		<line class="st3" x1="279.2" y1="181.6" x2="453.5" y2="181.6"/>
		<line class="st3" x1="279.2" y1="169.2" x2="453.5" y2="169.2"/>
		<line class="st3" x1="279.2" y1="194.1" x2="453.5" y2="194.1"/>
		<line class="st3" x1="279.2" y1="156.7" x2="453.5" y2="156.7"/>
		<line class="st3" x1="279.2" y1="144.3" x2="453.5" y2="144.3"/>
		<line class="st3" x1="279.2" y1="131.8" x2="453.5" y2="131.8"/>
		<line class="st3" x1="279.2" y1="119.4" x2="453.5" y2="119.4"/>
		<line class="st3" x1="279.2" y1="106.9" x2="453.5" y2="106.9"/>
		<line class="st3" x1="279.2" y1="94.5" x2="453.5" y2="94.5"/>
		<line class="st3" x1="279.2" y1="82" x2="453.5" y2="82"/>
		<line class="st3" x1="279.2" y1="69.6" x2="453.5" y2="69.6"/>
		<line class="st3" x1="279.2" y1="57.1" x2="453.5" y2="57.1"/>
		<line class="st3" x1="279.2" y1="44.7" x2="453.5" y2="44.7"/>
		<line class="st3" x1="428.6" y1="32.2" x2="428.6" y2="206.6"/>
		<line class="st3" x1="416.1" y1="32.2" x2="416.1" y2="206.6"/>
		<line class="st3" x1="441.1" y1="32.2" x2="441.1" y2="206.6"/>
		<line class="st3" x1="403.7" y1="32.2" x2="403.7" y2="206.6"/>
		<line class="st3" x1="391.2" y1="32.2" x2="391.2" y2="206.6"/>
		<line class="st3" x1="378.8" y1="32.2" x2="378.8" y2="206.6"/>
		<line class="st3" x1="366.3" y1="32.2" x2="366.3" y2="206.6"/>
		<line class="st3" x1="353.9" y1="32.2" x2="353.9" y2="206.6"/>
		<line class="st3" x1="341.4" y1="32.2" x2="341.4" y2="206.6"/>
		<line class="st3" x1="329" y1="32.2" x2="329" y2="206.6"/>
		<line class="st3" x1="316.5" y1="32.2" x2="316.5" y2="206.6"/>
		<line class="st3" x1="304.1" y1="32.2" x2="304.1" y2="206.6"/>
		<line class="st3" x1="291.6" y1="32.2" x2="291.6" y2="206.6"/>
	</g>
	<g class="st2">
		<polyline class="st3" points="279.2,57.1 304.1,32.2 329,57.1 353.9,32.2 378.8,57.1 403.7,32.2 428.6,57.1 453.5,32.2 		"/>
		<polyline class="st3" points="279.2,82 304.1,57.1 329,82 353.9,57.1 378.8,82 403.7,57.1 428.6,82 453.5,57.1 		"/>
		<polyline class="st3" points="279.2,106.9 304.1,82 329,106.9 353.9,82 378.8,106.9 403.7,82 428.6,106.9 453.5,82 		"/>
		<polyline class="st3" points="279.2,131.8 304.1,106.9 329,131.8 353.9,106.9 378.8,131.8 403.7,106.9 428.6,131.8 453.5,106.9 		
			"/>
		<polyline class="st3" points="279.2,156.7 304.1,131.8 329,156.7 353.9,131.8 378.8,156.7 403.7,131.8 428.6,156.7 453.5,131.8 		
			"/>
		<polyline class="st3" points="279.2,181.6 304.1,156.7 329,181.6 353.9,156.7 378.8,181.6 403.7,156.7 428.6,181.6 453.5,156.7 		
			"/>
		<polyline class="st3" points="279.2,206.5 304.1,181.6 329,206.5 353.9,181.6 378.8,206.5 403.7,181.6 428.6,206.5 453.5,181.6 		
			"/>
	</g>
	<g class="st2">
		<polyline class="st3" points="453.5,57.1 428.6,32.2 403.7,57.1 378.8,32.2 353.9,57.1 329,32.2 304.1,57.1 279.2,32.2 		"/>
		<polyline class="st3" points="453.5,82 428.6,57.1 403.7,82 378.8,57.1 353.9,82 329,57.1 304.1,82 279.2,57.1 		"/>
		<polyline class="st3" points="453.5,106.9 428.6,82 403.7,106.9 378.8,82 353.9,106.9 329,82 304.1,106.9 279.2,82 		"/>
		<polyline class="st3" points="453.5,131.8 428.6,106.9 403.7,131.8 378.8,106.9 353.9,131.8 329,106.9 304.1,131.8 279.2,106.9 		
			"/>
		<polyline class="st3" points="453.5,156.7 428.6,131.8 403.7,156.7 378.8,131.8 353.9,156.7 329,131.8 304.1,156.7 279.2,131.8 		
			"/>
		<polyline class="st3" points="453.5,181.6 428.6,156.7 403.7,181.6 378.8,156.7 353.9,181.6 329,156.7 304.1,181.6 279.2,156.7 		
			"/>
		<polyline class="st3" points="453.5,206.5 428.6,181.6 403.7,206.5 378.8,181.6 353.9,206.5 329,181.6 304.1,206.5 279.2,181.6 		
			"/>
	</g>
	<rect x="67.6" y="32.5" class="st4" width="37.3" height="173.8"/>
	<polyline class="st4" points="104.8,181.5 104.8,181.5 92.4,181.5 80,181.5 80,181.5 80,181.5 68,181.5 67.6,181.5 	"/>
	<polyline class="st4" points="104.8,169 92.4,169 92.4,169 92.4,169 80,169 68,169 67.6,169 67.6,169 	"/>
	<polyline class="st4" points="104.8,193.9 92.4,193.9 92.4,193.9 92.4,193.9 80,193.9 68,193.9 67.6,193.9 67.6,193.9 	"/>
	<polyline class="st4" points="104.8,156.6 92.4,156.6 80,156.6 68,156.6 67.6,156.6 	"/>
	<polyline class="st4" points="104.8,144.2 92.4,144.2 80,144.2 68,144.2 67.6,144.2 67.6,144.2 	"/>
	<polyline class="st4" points="104.8,131.8 92.4,131.8 80,131.8 68,131.8 67.6,131.8 	"/>
	<polyline class="st4" points="104.8,119.4 92.4,119.4 80,119.4 68,119.4 67.6,119.4 67.6,119.4 	"/>
	<polyline class="st4" points="104.8,106.9 92.4,106.9 80,106.9 68,106.9 67.6,106.9 	"/>
	<polyline class="st4" points="104.8,94.5 92.4,94.5 92.4,94.5 80,94.5 68,94.5 67.6,94.5 67.6,94.5 	"/>
	<polyline class="st4" points="104.8,82.1 104.8,82.1 92.4,82.1 80,82.1 80,82.1 80,82.1 68,82.1 67.6,82.1 	"/>
	<polyline class="st4" points="104.8,69.7 92.4,69.7 80,69.7 68,69.7 67.6,69.7 67.6,69.7 	"/>
	<polyline class="st4" points="104.8,57.3 92.4,57.3 80,57.3 68,57.3 67.6,57.3 	"/>
	<polyline class="st4" points="104.8,44.9 92.4,44.9 80,44.9 68,44.9 67.6,44.9 67.6,44.9 	"/>
	<polyline class="st4" points="80,206.3 80,206.3 80,193.9 80,181.5 80,181.4 80,169 80,156.6 80,144.2 80,131.8 80,119.4 80,106.9 
		80,106.9 80,94.5 80,82.1 80,82.1 80,69.7 80,57.3 80,44.9 80,32.5 	"/>
	<polyline class="st4" points="92.4,206.3 92.4,193.9 92.4,193.9 92.4,181.5 92.4,169 92.4,169 92.4,156.6 92.4,144.2 92.4,131.8 
		92.4,119.4 92.4,106.9 92.4,94.5 92.4,94.5 92.4,82.1 92.4,69.7 92.4,69.7 92.4,57.3 92.4,44.9 92.4,32.5 	"/>
	<polyline class="st4" points="104.8,32.5 92.4,44.9 80,57.3 68,45.3 67.6,44.9 67.6,44.9 	"/>
	<polyline class="st4" points="104.8,57.3 92.4,69.7 92.4,69.7 80,82.1 68,70.1 67.6,69.7 67.6,69.7 	"/>
	<polyline class="st4" points="104.8,82.1 104.8,82.1 104.8,82.1 92.4,94.5 92.4,94.5 92.4,94.5 80,106.9 68,94.9 67.6,94.5 
		67.6,94.5 67.6,94.5 	"/>
	<polyline class="st4" points="104.8,106.9 92.4,119.4 80,131.8 68,119.8 67.6,119.4 67.6,119.4 	"/>
	<polyline class="st4" points="104.8,131.8 92.4,144.2 80,156.6 68,144.6 67.6,144.2 67.6,144.2 	"/>
	<polyline class="st4" points="104.8,156.6 92.4,169 92.4,169 92.4,169 80,181.4 68,169.4 67.6,169 67.6,169 67.6,169 	"/>
	<polyline class="st4" points="104.8,181.4 104.8,181.5 104.8,181.5 92.4,193.9 92.4,193.9 92.4,193.9 80,206.3 68,194.3 
		67.6,193.9 67.6,193.9 67.6,193.9 	"/>
	<polyline class="st4" points="67.6,44.9 67.6,44.9 68,44.5 80,32.5 92.4,44.9 104.8,57.3 	"/>
	<polyline class="st4" points="67.6,69.7 67.6,69.7 68,69.3 80,57.3 92.4,69.7 92.4,69.7 104.8,82.1 104.8,82.1 	"/>
	<polyline class="st4" points="67.6,94.5 67.6,94.5 68,94.1 80,82.1 80,82.1 80,82.1 80,82.1 92.4,94.5 92.4,94.5 104.8,106.9 	"/>
	<polyline class="st4" points="67.6,119.4 67.6,119.4 68,119 80,106.9 92.4,119.4 104.8,131.8 	"/>
	<polyline class="st4" points="67.6,144.2 67.6,144.2 68,143.8 80,131.8 92.4,144.2 104.8,156.6 	"/>
	<polyline class="st4" points="67.6,169 67.6,169 68,168.6 80,156.6 92.4,169 92.4,169 92.4,169 104.8,181.4 	"/>
	<polyline class="st4" points="67.6,193.9 67.6,193.9 68,193.4 80,181.5 80,181.4 80,181.5 80,181.5 92.4,193.9 92.4,193.9 
		92.4,193.9 104.8,206.3 	"/>
	<rect x="67.6" y="206.8" class="st4" width="37.3" height="173.8"/>
	<polyline class="st4" points="104.8,355.8 104.8,355.8 92.4,355.8 80,355.8 80,355.8 80,355.8 68,355.8 67.6,355.8 	"/>
	<polyline class="st4" points="104.8,343.4 92.4,343.4 92.4,343.4 92.4,343.4 80,343.4 68,343.4 67.6,343.4 67.6,343.4 	"/>
	<polyline class="st4" points="104.8,368.2 92.4,368.2 92.4,368.2 92.4,368.2 80,368.2 68,368.2 67.6,368.2 67.6,368.2 	"/>
	<polyline class="st4" points="104.8,331 92.4,331 80,331 68,331 67.6,331 	"/>
	<polyline class="st4" points="104.8,318.5 92.4,318.5 80,318.5 68,318.5 67.6,318.5 67.6,318.5 	"/>
	<polyline class="st4" points="104.8,306.1 92.4,306.1 80,306.1 68,306.1 67.6,306.1 	"/>
	<polyline class="st4" points="104.8,293.7 92.4,293.7 80,293.7 68,293.7 67.6,293.7 67.6,293.7 	"/>
	<polyline class="st4" points="104.8,281.3 92.4,281.3 80,281.3 68,281.3 67.6,281.3 	"/>
	<polyline class="st4" points="104.8,268.9 92.4,268.9 92.4,268.9 80,268.9 68,268.9 67.6,268.9 67.6,268.9 	"/>
	<polyline class="st4" points="104.8,256.5 104.8,256.5 92.4,256.5 80,256.5 80,256.5 80,256.5 68,256.5 67.6,256.5 	"/>
	<polyline class="st4" points="104.8,244 92.4,244 80,244 68,244 67.6,244 67.6,244 	"/>
	<polyline class="st4" points="104.8,231.6 92.4,231.6 80,231.6 68,231.6 67.6,231.6 	"/>
	<polyline class="st4" points="104.8,219.2 92.4,219.2 80,219.2 68,219.2 67.6,219.2 67.6,219.2 	"/>
	<polyline class="st4" points="80,380.6 80,380.6 80,368.2 80,355.8 80,355.8 80,343.4 80,331 80,318.5 80,306.1 80,293.7 80,281.3 
		80,281.3 80,268.9 80,256.5 80,256.5 80,244 80,231.6 80,219.2 80,206.8 	"/>
	<polyline class="st4" points="92.4,380.6 92.4,368.2 92.4,368.2 92.4,355.8 92.4,343.4 92.4,343.4 92.4,331 92.4,318.5 92.4,306.1 
		92.4,293.7 92.4,281.3 92.4,268.9 92.4,268.9 92.4,256.5 92.4,244 92.4,244 92.4,231.6 92.4,219.2 92.4,206.8 	"/>
	<polyline class="st4" points="104.8,206.8 92.4,219.2 80,231.6 68,219.6 67.6,219.2 67.6,219.2 	"/>
	<polyline class="st4" points="104.8,231.6 92.4,244 92.4,244 80,256.5 68,244.4 67.6,244 67.6,244 	"/>
	<polyline class="st4" points="104.8,256.5 104.8,256.5 104.8,256.5 92.4,268.9 92.4,268.9 92.4,268.9 80,281.3 68,269.3 
		67.6,268.9 67.6,268.9 67.6,268.9 	"/>
	<polyline class="st4" points="104.8,281.3 92.4,293.7 80,306.1 68,294.1 67.6,293.7 67.6,293.7 	"/>
	<polyline class="st4" points="104.8,306.1 92.4,318.5 80,331 68,319 67.6,318.5 67.6,318.5 	"/>
	<polyline class="st4" points="104.8,331 92.4,343.4 92.4,343.4 92.4,343.4 80,355.8 68,343.8 67.6,343.4 67.6,343.4 67.6,343.4 	
		"/>
	<polyline class="st4" points="104.8,355.8 104.8,355.8 104.8,355.8 92.4,368.2 92.4,368.2 92.4,368.2 80,380.6 68,368.6 
		67.6,368.2 67.6,368.2 67.6,368.2 	"/>
	<polyline class="st4" points="67.6,219.2 67.6,219.2 68,218.8 80,206.8 92.4,219.2 104.8,231.6 	"/>
	<polyline class="st4" points="67.6,244 67.6,244 68,243.6 80,231.6 92.4,244 92.4,244 104.8,256.5 104.8,256.5 	"/>
	<polyline class="st4" points="67.6,268.9 67.6,268.9 68,268.5 80,256.5 80,256.5 80,256.5 80,256.5 92.4,268.9 92.4,268.9 
		104.8,281.3 	"/>
	<polyline class="st4" points="67.6,293.7 67.6,293.7 68,293.3 80,281.3 92.4,293.7 104.8,306.1 	"/>
	<polyline class="st4" points="67.6,318.5 67.6,318.5 68,318.1 80,306.1 92.4,318.5 104.8,331 	"/>
	<polyline class="st4" points="67.6,343.4 67.6,343.4 68,343 80,331 92.4,343.4 92.4,343.4 92.4,343.4 104.8,355.8 	"/>
	<polyline class="st4" points="67.6,368.2 67.6,368.2 68,367.8 80,355.8 80,355.8 80,355.8 80,355.8 92.4,368.2 92.4,368.2 
		92.4,368.2 104.8,380.6 	"/>
	<rect x="453.5" y="32.2" class="st4" width="37.3" height="173.8"/>
	<polyline class="st4" points="453.5,181.2 453.5,181.2 465.9,181.2 478.3,181.2 478.3,181.2 478.4,181.2 490.3,181.2 490.8,181.2 	
		"/>
	<polyline class="st4" points="453.5,168.8 465.9,168.8 465.9,168.8 465.9,168.8 478.3,168.8 490.3,168.8 490.8,168.8 490.8,168.8 	
		"/>
	<polyline class="st4" points="453.5,193.6 465.9,193.6 465.9,193.6 465.9,193.6 478.3,193.6 490.3,193.6 490.8,193.6 490.8,193.6 	
		"/>
	<polyline class="st4" points="453.5,156.4 465.9,156.4 478.3,156.4 490.3,156.4 490.8,156.4 	"/>
	<polyline class="st4" points="453.5,144 465.9,144 478.3,144 490.3,144 490.8,144 490.8,144 	"/>
	<polyline class="st4" points="453.5,131.6 465.9,131.6 478.3,131.6 490.3,131.6 490.8,131.6 	"/>
	<polyline class="st4" points="453.5,119.1 465.9,119.1 478.3,119.1 490.3,119.1 490.8,119.1 490.8,119.1 	"/>
	<polyline class="st4" points="453.5,106.7 465.9,106.7 478.3,106.7 490.3,106.7 490.8,106.7 	"/>
	<polyline class="st4" points="453.5,94.3 465.9,94.3 465.9,94.3 478.3,94.3 490.3,94.3 490.8,94.3 490.8,94.3 	"/>
	<polyline class="st4" points="453.5,81.9 453.5,81.9 465.9,81.9 478.3,81.9 478.3,81.9 478.4,81.9 490.3,81.9 490.8,81.9 	"/>
	<polyline class="st4" points="453.5,69.5 465.9,69.5 478.3,69.5 490.3,69.5 490.8,69.5 490.8,69.5 	"/>
	<polyline class="st4" points="453.5,57 465.9,57 478.3,57 490.3,57 490.8,57 	"/>
	<polyline class="st4" points="453.5,44.6 465.9,44.6 478.3,44.6 490.3,44.6 490.8,44.6 490.8,44.6 	"/>
	<polyline class="st4" points="478.3,206.1 478.3,206.1 478.3,193.6 478.3,181.2 478.3,181.2 478.3,168.8 478.3,156.4 478.3,144 
		478.3,131.6 478.3,119.1 478.3,106.7 478.3,106.7 478.3,94.3 478.3,81.9 478.3,81.9 478.3,69.5 478.3,57 478.3,44.6 478.3,32.2 	
		"/>
	<polyline class="st4" points="465.9,206.1 465.9,193.6 465.9,193.6 465.9,181.2 465.9,168.8 465.9,168.8 465.9,156.4 465.9,144 
		465.9,131.6 465.9,119.1 465.9,106.7 465.9,94.3 465.9,94.3 465.9,81.9 465.9,69.5 465.9,69.5 465.9,57 465.9,44.6 465.9,32.2 	"/>
	<polyline class="st4" points="453.5,32.2 465.9,44.6 478.3,57 490.3,45 490.8,44.6 490.8,44.6 	"/>
	<polyline class="st4" points="453.5,57 465.9,69.5 465.9,69.5 478.3,81.9 490.3,69.9 490.8,69.5 490.8,69.5 	"/>
	<polyline class="st4" points="453.5,81.9 453.5,81.9 453.5,81.9 465.9,94.3 465.9,94.3 465.9,94.3 478.3,106.7 490.3,94.7 
		490.8,94.3 490.8,94.3 490.8,94.3 	"/>
	<polyline class="st4" points="453.5,106.7 465.9,119.1 478.3,131.6 490.3,119.6 490.8,119.1 490.8,119.1 	"/>
	<polyline class="st4" points="453.5,131.6 465.9,144 478.3,156.4 490.3,144.4 490.8,144 490.8,144 	"/>
	<polyline class="st4" points="453.5,156.4 465.9,168.8 465.9,168.8 465.9,168.8 478.3,181.2 490.3,169.2 490.8,168.8 490.8,168.8 
		490.8,168.8 	"/>
	<polyline class="st4" points="453.5,181.2 453.5,181.2 453.5,181.2 465.9,193.6 465.9,193.6 465.9,193.6 478.3,206.1 490.3,194 
		490.8,193.6 490.8,193.6 490.8,193.6 	"/>
	<polyline class="st4" points="490.8,44.6 490.8,44.6 490.3,44.2 478.3,32.2 465.9,44.6 453.5,57 	"/>
	<polyline class="st4" points="490.8,69.5 490.8,69.5 490.3,69.1 478.3,57 465.9,69.5 465.9,69.5 453.5,81.9 453.5,81.9 	"/>
	<polyline class="st4" points="490.8,94.3 490.8,94.3 490.3,93.9 478.4,81.9 478.3,81.9 478.3,81.9 478.3,81.9 465.9,94.3 
		465.9,94.3 453.5,106.7 	"/>
	<polyline class="st4" points="490.8,119.1 490.8,119.1 490.3,118.7 478.3,106.7 465.9,119.1 453.5,131.6 	"/>
	<polyline class="st4" points="490.8,144 490.8,144 490.3,143.6 478.3,131.6 465.9,144 453.5,156.4 	"/>
	<polyline class="st4" points="490.8,168.8 490.8,168.8 490.3,168.4 478.3,156.4 465.9,168.8 465.9,168.8 465.9,168.8 453.5,181.2 	
		"/>
	<polyline class="st4" points="490.8,193.6 490.8,193.6 490.3,193.2 478.4,181.2 478.3,181.2 478.3,181.2 478.3,181.2 465.9,193.6 
		465.9,193.6 465.9,193.6 453.5,206.1 	"/>
	<rect x="490.8" y="32.2" class="st4" width="12.4" height="173.8"/>
	<polyline class="st4" points="490.8,181.2 503.2,181.2 503.2,181.2 	"/>
	<polyline class="st4" points="490.8,168.8 490.8,168.8 503.2,168.8 	"/>
	<polyline class="st4" points="490.8,193.6 490.8,193.6 503.2,193.6 	"/>
	<line class="st4" x1="490.8" y1="156.4" x2="503.2" y2="156.4"/>
	<line class="st4" x1="490.8" y1="144" x2="503.2" y2="144"/>
	<line class="st4" x1="490.8" y1="131.6" x2="503.2" y2="131.6"/>
	<line class="st4" x1="490.8" y1="119.1" x2="503.2" y2="119.1"/>
	<line class="st4" x1="490.8" y1="106.7" x2="503.2" y2="106.7"/>
	<line class="st4" x1="490.8" y1="94.3" x2="503.2" y2="94.3"/>
	<polyline class="st4" points="490.8,81.9 503.2,81.9 503.2,81.9 	"/>
	<line class="st4" x1="490.8" y1="69.5" x2="503.2" y2="69.5"/>
	<line class="st4" x1="490.8" y1="57" x2="503.2" y2="57"/>
	<line class="st4" x1="490.8" y1="44.6" x2="503.2" y2="44.6"/>
	<line class="st4" x1="490.8" y1="44.6" x2="503.2" y2="32.2"/>
	<line class="st4" x1="490.8" y1="69.5" x2="503.2" y2="57"/>
	<polyline class="st4" points="490.8,94.3 503.2,81.9 503.2,81.9 503.2,81.9 	"/>
	<line class="st4" x1="490.8" y1="119.1" x2="503.2" y2="106.7"/>
	<line class="st4" x1="490.8" y1="144" x2="503.2" y2="131.6"/>
	<line class="st4" x1="490.8" y1="168.8" x2="503.2" y2="156.4"/>
	<polyline class="st4" points="490.8,193.6 503.2,181.2 503.2,181.2 503.2,181.2 	"/>
	<line class="st4" x1="490.8" y1="44.6" x2="503.2" y2="57"/>
	<polyline class="st4" points="503.2,81.9 503.2,81.9 490.8,69.5 	"/>
	<line class="st4" x1="490.8" y1="94.3" x2="503.2" y2="106.7"/>
	<line class="st4" x1="490.8" y1="119.1" x2="503.2" y2="131.6"/>
	<line class="st4" x1="490.8" y1="144" x2="503.2" y2="156.4"/>
	<polyline class="st4" points="503.2,181.2 490.8,168.8 490.8,168.8 	"/>
	<polyline class="st4" points="503.2,206.1 490.8,193.6 490.8,193.6 	"/>
	<rect x="453.5" y="206.8" class="st4" width="37.3" height="173.8"/>
	<polyline class="st4" points="453.5,355.8 453.5,355.8 465.9,355.8 478.3,355.8 478.3,355.8 478.3,355.8 490.3,355.8 490.8,355.8 	
		"/>
	<polyline class="st4" points="453.5,343.4 465.9,343.4 465.9,343.4 465.9,343.4 478.3,343.4 490.3,343.4 490.7,343.4 490.8,343.4 	
		"/>
	<polyline class="st4" points="453.5,368.2 465.9,368.2 465.9,368.2 465.9,368.2 478.3,368.2 490.3,368.2 490.7,368.2 490.8,368.2 	
		"/>
	<polyline class="st4" points="453.5,331 465.9,331 478.3,331 490.3,331 490.8,331 	"/>
	<polyline class="st4" points="453.5,318.5 465.9,318.5 478.3,318.5 490.3,318.5 490.8,318.5 490.8,318.5 	"/>
	<polyline class="st4" points="453.5,306.1 465.9,306.1 478.3,306.1 490.3,306.1 490.8,306.1 	"/>
	<polyline class="st4" points="453.5,293.7 465.9,293.7 478.3,293.7 490.3,293.7 490.8,293.7 490.8,293.7 	"/>
	<polyline class="st4" points="453.5,281.3 465.9,281.3 478.3,281.3 490.3,281.3 490.8,281.3 	"/>
	<polyline class="st4" points="453.5,268.9 465.9,268.9 465.9,268.9 478.3,268.9 490.3,268.9 490.7,268.9 490.8,268.9 	"/>
	<polyline class="st4" points="453.5,256.5 453.5,256.5 465.9,256.5 478.3,256.5 478.3,256.5 478.3,256.5 490.3,256.5 490.8,256.5 	
		"/>
	<polyline class="st4" points="453.5,244 465.9,244 478.3,244 490.3,244 490.8,244 490.8,244 	"/>
	<polyline class="st4" points="453.5,231.6 465.9,231.6 478.3,231.6 490.3,231.6 490.8,231.6 	"/>
	<polyline class="st4" points="453.5,219.2 465.9,219.2 478.3,219.2 490.3,219.2 490.8,219.2 490.8,219.2 	"/>
	<polyline class="st4" points="478.3,380.6 478.3,380.6 478.3,368.2 478.3,355.8 478.3,355.8 478.3,343.4 478.3,331 478.3,318.5 
		478.3,306.1 478.3,293.7 478.3,281.3 478.3,281.3 478.3,268.9 478.3,256.5 478.3,256.4 478.3,244 478.3,231.6 478.3,219.2 
		478.3,206.8 	"/>
	<polyline class="st4" points="465.9,380.6 465.9,368.2 465.9,368.2 465.9,355.8 465.9,343.4 465.9,343.4 465.9,331 465.9,318.5 
		465.9,306.1 465.9,293.7 465.9,281.3 465.9,268.9 465.9,268.9 465.9,256.5 465.9,244 465.9,244 465.9,231.6 465.9,219.2 
		465.9,206.8 	"/>
	<polyline class="st4" points="453.5,206.8 465.9,219.2 478.3,231.6 490.3,219.6 490.8,219.2 490.8,219.2 	"/>
	<polyline class="st4" points="453.5,231.6 465.9,244 465.9,244 478.3,256.4 490.3,244.4 490.8,244 490.8,244 	"/>
	<polyline class="st4" points="453.5,256.4 453.5,256.5 453.5,256.5 465.9,268.9 465.9,268.9 465.9,268.9 478.3,281.3 490.3,269.3 
		490.7,268.9 490.8,268.9 490.8,268.9 	"/>
	<polyline class="st4" points="453.5,281.3 465.9,293.7 478.3,306.1 490.3,294.1 490.8,293.7 490.8,293.7 	"/>
	<polyline class="st4" points="453.5,306.1 465.9,318.5 478.3,331 490.3,318.9 490.8,318.5 490.8,318.5 	"/>
	<polyline class="st4" points="453.5,331 465.9,343.4 465.9,343.4 465.9,343.4 478.3,355.8 490.3,343.8 490.7,343.4 490.8,343.4 
		490.8,343.4 	"/>
	<polyline class="st4" points="453.5,355.8 453.5,355.8 453.5,355.8 465.9,368.2 465.9,368.2 465.9,368.2 478.3,380.6 490.3,368.6 
		490.7,368.2 490.8,368.2 490.8,368.2 	"/>
	<polyline class="st4" points="490.8,219.2 490.8,219.2 490.3,218.8 478.3,206.8 465.9,219.2 453.5,231.6 	"/>
	<polyline class="st4" points="490.8,244 490.8,244 490.3,243.6 478.3,231.6 465.9,244 465.9,244 453.5,256.4 453.5,256.5 	"/>
	<polyline class="st4" points="490.8,268.9 490.8,268.9 490.3,268.5 478.3,256.5 478.3,256.4 478.3,256.5 478.3,256.5 465.9,268.9 
		465.9,268.9 453.5,281.3 	"/>
	<polyline class="st4" points="490.8,293.7 490.8,293.7 490.3,293.3 478.3,281.3 465.9,293.7 453.5,306.1 	"/>
	<polyline class="st4" points="490.8,318.5 490.8,318.5 490.3,318.1 478.3,306.1 465.9,318.5 453.5,331 	"/>
	<polyline class="st4" points="490.8,343.4 490.8,343.4 490.3,343 478.3,331 465.9,343.4 465.9,343.4 465.9,343.4 453.5,355.8 	"/>
	<polyline class="st4" points="490.8,368.2 490.8,368.2 490.3,367.8 478.3,355.8 478.3,355.8 478.3,355.8 478.3,355.8 465.9,368.2 
		465.9,368.2 465.9,368.2 453.5,380.6 	"/>
	<rect x="490.8" y="206.8" class="st4" width="12.4" height="173.8"/>
	<polyline class="st4" points="490.8,355.8 503.2,355.8 503.2,355.8 	"/>
	<polyline class="st4" points="490.8,343.4 490.8,343.4 503.2,343.4 	"/>
	<polyline class="st4" points="490.8,368.2 490.8,368.2 503.2,368.2 	"/>
	<line class="st4" x1="490.8" y1="331" x2="503.2" y2="331"/>
	<line class="st4" x1="490.8" y1="318.5" x2="503.2" y2="318.5"/>
	<line class="st4" x1="490.8" y1="306.1" x2="503.2" y2="306.1"/>
	<line class="st4" x1="490.8" y1="293.7" x2="503.2" y2="293.7"/>
	<line class="st4" x1="490.8" y1="281.3" x2="503.2" y2="281.3"/>
	<line class="st4" x1="490.8" y1="268.9" x2="503.2" y2="268.9"/>
	<polyline class="st4" points="490.8,256.5 503.2,256.5 503.2,256.5 	"/>
	<line class="st4" x1="490.8" y1="244" x2="503.2" y2="244"/>
	<line class="st4" x1="490.8" y1="231.6" x2="503.2" y2="231.6"/>
	<line class="st4" x1="490.8" y1="219.2" x2="503.2" y2="219.2"/>
	<line class="st4" x1="490.8" y1="219.2" x2="503.2" y2="206.8"/>
	<line class="st4" x1="490.8" y1="244" x2="503.2" y2="231.6"/>
	<polyline class="st4" points="490.8,268.9 503.2,256.5 503.2,256.5 503.2,256.4 	"/>
	<line class="st4" x1="490.8" y1="293.7" x2="503.2" y2="281.3"/>
	<line class="st4" x1="490.8" y1="318.5" x2="503.2" y2="306.1"/>
	<line class="st4" x1="490.8" y1="343.4" x2="503.2" y2="331"/>
	<polyline class="st4" points="490.8,368.2 503.2,355.8 503.2,355.8 503.2,355.8 	"/>
	<line class="st4" x1="490.8" y1="219.2" x2="503.2" y2="231.6"/>
	<polyline class="st4" points="503.2,256.5 503.2,256.4 490.8,244 	"/>
	<line class="st4" x1="490.8" y1="268.9" x2="503.2" y2="281.3"/>
	<line class="st4" x1="490.8" y1="293.7" x2="503.2" y2="306.1"/>
	<line class="st4" x1="490.8" y1="318.5" x2="503.2" y2="331"/>
	<polyline class="st4" points="503.2,355.8 490.8,343.4 490.8,343.4 	"/>
	<polyline class="st4" points="503.2,380.6 490.8,368.2 490.8,368.2 	"/>
</g>
<rect x="278.7" y="0.1" class="st5" width="13.8" height="57"/>
<rect x="278.5" y="443.1" class="st5" width="13.9" height="57"/>
<g id="blanco">
</g>
<g id="negro">
</g>
<path class="st6" d="M468.1,209c3.9,14.7,6,30.1,6,46.1c0,99.3-80.5,179.9-179.9,179.9v-16.4c90.3,0,163.5-73.2,163.5-163.5
	c0-13.3-1.6-26.2-4.6-38.6l-111.5,55.7c9.2,38.7,17.1,71.3,17.9,73.1c2,4.5,5,8.3,7.8,10.9c2.9,2.5,3.7,2.8,8.7,4v9.4h-65.4v-10
	c5.5-1.1,3.2-0.5,6-1.8c2.7-1.3,6.5-3.5,7.8-5.8c1.3-2.4,2.4-5.2,2.4-9.2c0-3.8-0.6-8.1-1.5-12.5c-0.3-1.5-4.1-20.8-9-45.4l-5.9,2.9
	h-16.3l19-19c-8.7-44-19-95.5-19-95.5v-32.7h16.3c0,0,12.6,53.6,25,105.9l56.9-56.8h51.7c-25.2-57.8-82.9-98.1-149.9-98.1V75.2
	c76.3,0,141.4,47.5,167.6,114.5h45L468.1,209z"/>
<path class="st7" d="M277.9,418.6v16.4C178.5,434.9,98,354.4,98,255.1c0-15.8,2-31.2,5.9-45.8l-38.6-19.2l44.9-0.2
	c26.1-67.1,91.3-114.7,167.7-114.7v16.4c-67.1,0-124.8,40.5-150,98.3l51.7-0.2l56.9,56.7l25.2-105.8h16.3v32.7
	c0,0-9.6,52.3-17.8,96.6l17.9,17.9h-16.3l-4.6-2.3c-4.5,24.4-8.1,43.5-8.4,45c-0.9,4.4-1.3,8.4-1.3,12.2c0,4,0.7,7.2,2,9.5
	c1.3,2.4,3.3,4.2,6.1,5.6c2.7,1.3,0.4,0.7,6,1.8v10h-65.4v-9.4c5-1.2,4.3-1.8,7.2-4.4c2.9-2.5,5.3-6.1,7.4-10.6
	c2-4.5,4.4-11.1,7-19.7l12.7-53.3l-111.5-55.4c-3,12.3-4.5,25.1-4.5,38.3C114.3,345.4,187.5,418.6,277.9,418.6z"/>
<g id="medidas_4_" class="st0">
	<rect x="0.6" y="190.1" class="st1" width="64.7" height="15.7"/>
	<rect x="278.3" y="435" class="st1" width="15.7" height="64.7"/>
	<rect x="507" y="189.5" class="st1" width="64.7" height="15.7"/>
</g>
<g id="Grilla_4_" class="st0">
	<g class="st2">
		<rect x="48.9" y="42.5" class="st3" width="228.9" height="228.9"/>
		<line class="st3" x1="48.9" y1="238.7" x2="277.9" y2="238.7"/>
		<line class="st3" x1="48.9" y1="222.4" x2="277.9" y2="222.4"/>
		<line class="st3" x1="48.9" y1="255.1" x2="277.9" y2="255.1"/>
		<line class="st3" x1="48.9" y1="206" x2="277.9" y2="206"/>
		<line class="st3" x1="48.9" y1="189.7" x2="277.9" y2="189.7"/>
		<line class="st3" x1="48.9" y1="173.3" x2="277.9" y2="173.3"/>
		<line class="st3" x1="48.9" y1="157" x2="277.9" y2="157"/>
		<line class="st3" x1="48.9" y1="140.6" x2="277.9" y2="140.6"/>
		<line class="st3" x1="48.9" y1="124.3" x2="277.9" y2="124.3"/>
		<line class="st3" x1="48.9" y1="107.9" x2="277.9" y2="107.9"/>
		<line class="st3" x1="48.9" y1="91.6" x2="277.9" y2="91.6"/>
		<line class="st3" x1="48.9" y1="75.2" x2="277.9" y2="75.2"/>
		<line class="st3" x1="48.9" y1="58.9" x2="277.9" y2="58.9"/>
		<line class="st3" x1="245.1" y1="42.5" x2="245.1" y2="271.4"/>
		<line class="st3" x1="228.8" y1="42.5" x2="228.8" y2="271.4"/>
		<line class="st3" x1="261.5" y1="42.5" x2="261.5" y2="271.4"/>
		<line class="st3" x1="212.4" y1="42.5" x2="212.4" y2="271.4"/>
		<line class="st3" x1="196.1" y1="42.5" x2="196.1" y2="271.4"/>
		<line class="st3" x1="179.7" y1="42.5" x2="179.7" y2="271.4"/>
		<line class="st3" x1="163.4" y1="42.5" x2="163.4" y2="271.4"/>
		<line class="st3" x1="147" y1="42.5" x2="147" y2="271.4"/>
		<line class="st3" x1="130.7" y1="42.5" x2="130.7" y2="271.4"/>
		<line class="st3" x1="114.3" y1="42.5" x2="114.3" y2="271.4"/>
		<line class="st3" x1="98" y1="42.5" x2="98" y2="271.4"/>
		<line class="st3" x1="81.6" y1="42.5" x2="81.6" y2="271.4"/>
		<line class="st3" x1="65.3" y1="42.5" x2="65.3" y2="271.4"/>
	</g>
	<g class="st2">
		<polyline class="st3" points="48.9,75.2 81.6,42.5 114.3,75.2 147,42.5 179.7,75.2 212.4,42.5 245.1,75.2 277.9,42.5 		"/>
		<polyline class="st3" points="48.9,107.9 81.6,75.2 114.3,107.9 147,75.2 179.7,107.9 212.4,75.2 245.1,107.9 277.9,75.2 		"/>
		<polyline class="st3" points="48.9,140.6 81.6,107.9 114.3,140.6 147,107.9 179.7,140.6 212.4,107.9 245.1,140.6 277.9,107.9 		
			"/>
		<polyline class="st3" points="48.9,173.3 81.6,140.6 114.3,173.3 147,140.6 179.7,173.3 212.4,140.6 245.1,173.3 277.9,140.6 		
			"/>
		<polyline class="st3" points="48.9,206 81.6,173.3 114.3,206 147,173.3 179.7,206 212.4,173.3 245.1,206 277.9,173.3 		"/>
		<polyline class="st3" points="48.9,238.7 81.6,206 114.3,238.7 147,206 179.7,238.7 212.4,206 245.1,238.7 277.9,206 		"/>
		<polyline class="st3" points="48.9,271.4 81.6,238.7 114.3,271.4 147,238.7 179.7,271.4 212.4,238.7 245.1,271.4 277.9,238.7 		
			"/>
	</g>
	<g class="st2">
		<polyline class="st3" points="277.9,75.2 245.1,42.5 212.4,75.2 179.7,42.5 147,75.2 114.3,42.5 81.6,75.2 48.9,42.5 		"/>
		<polyline class="st3" points="277.9,107.9 245.1,75.2 212.4,107.9 179.7,75.2 147,107.9 114.3,75.2 81.6,107.9 48.9,75.2 		"/>
		<polyline class="st3" points="277.9,140.6 245.1,107.9 212.4,140.6 179.7,107.9 147,140.6 114.3,107.9 81.6,140.6 48.9,107.9 		
			"/>
		<polyline class="st3" points="277.9,173.3 245.1,140.6 212.4,173.3 179.7,140.6 147,173.3 114.3,140.6 81.6,173.3 48.9,140.6 		
			"/>
		<polyline class="st3" points="277.9,206 245.1,173.3 212.4,206 179.7,173.3 147,206 114.3,173.3 81.6,206 48.9,173.3 		"/>
		<polyline class="st3" points="277.9,238.7 245.1,206 212.4,238.7 179.7,206 147,238.7 114.3,206 81.6,238.7 48.9,206 		"/>
		<polyline class="st3" points="277.9,271.4 245.1,238.7 212.4,271.4 179.7,238.7 147,271.4 114.3,238.7 81.6,271.4 48.9,238.7 		
			"/>
	</g>
	<g class="st2">
		<rect x="277.9" y="271.4" class="st3" width="228.9" height="228.9"/>
		<line class="st3" x1="277.9" y1="467.6" x2="506.8" y2="467.6"/>
		<line class="st3" x1="277.9" y1="451.3" x2="506.8" y2="451.3"/>
		<line class="st3" x1="277.9" y1="484" x2="506.8" y2="484"/>
		<line class="st3" x1="277.9" y1="434.9" x2="506.8" y2="434.9"/>
		<line class="st3" x1="277.9" y1="418.6" x2="506.8" y2="418.6"/>
		<line class="st3" x1="277.9" y1="402.2" x2="506.8" y2="402.2"/>
		<line class="st3" x1="277.9" y1="385.9" x2="506.8" y2="385.9"/>
		<line class="st3" x1="277.9" y1="369.5" x2="506.8" y2="369.5"/>
		<line class="st3" x1="277.9" y1="353.2" x2="506.8" y2="353.2"/>
		<line class="st3" x1="277.9" y1="336.8" x2="506.8" y2="336.8"/>
		<line class="st3" x1="277.9" y1="320.5" x2="506.8" y2="320.5"/>
		<line class="st3" x1="277.9" y1="304.1" x2="506.8" y2="304.1"/>
		<line class="st3" x1="277.9" y1="287.8" x2="506.8" y2="287.8"/>
		<line class="st3" x1="474.1" y1="271.4" x2="474.1" y2="500.3"/>
		<line class="st3" x1="457.7" y1="271.4" x2="457.7" y2="500.3"/>
		<line class="st3" x1="490.4" y1="271.4" x2="490.4" y2="500.3"/>
		<line class="st3" x1="441.4" y1="271.4" x2="441.4" y2="500.3"/>
		<line class="st3" x1="425" y1="271.4" x2="425" y2="500.3"/>
		<line class="st3" x1="408.7" y1="271.4" x2="408.7" y2="500.3"/>
		<line class="st3" x1="392.3" y1="271.4" x2="392.3" y2="500.3"/>
		<line class="st3" x1="376" y1="271.4" x2="376" y2="500.3"/>
		<line class="st3" x1="359.6" y1="271.4" x2="359.6" y2="500.3"/>
		<line class="st3" x1="343.2" y1="271.4" x2="343.2" y2="500.3"/>
		<line class="st3" x1="326.9" y1="271.4" x2="326.9" y2="500.3"/>
		<line class="st3" x1="310.5" y1="271.4" x2="310.5" y2="500.3"/>
		<line class="st3" x1="294.2" y1="271.4" x2="294.2" y2="500.3"/>
	</g>
	<g class="st2">
		<polyline class="st3" points="277.9,304.1 310.5,271.4 343.2,304.1 376,271.4 408.7,304.1 441.4,271.4 474.1,304.1 506.8,271.4 		
			"/>
		<polyline class="st3" points="277.9,336.8 310.5,304.1 343.2,336.8 376,304.1 408.7,336.8 441.4,304.1 474.1,336.8 506.8,304.1 		
			"/>
		<polyline class="st3" points="277.9,369.5 310.5,336.8 343.2,369.5 376,336.8 408.7,369.5 441.4,336.8 474.1,369.5 506.8,336.8 		
			"/>
		<polyline class="st3" points="277.9,402.2 310.5,369.5 343.2,402.2 376,369.5 408.7,402.2 441.4,369.5 474.1,402.2 506.8,369.5 		
			"/>
		<polyline class="st3" points="277.9,434.9 310.5,402.2 343.2,434.9 376,402.2 408.7,434.9 441.4,402.2 474.1,434.9 506.8,402.2 		
			"/>
		<polyline class="st3" points="277.9,467.6 310.5,434.9 343.2,467.6 376,434.9 408.7,467.6 441.4,434.9 474.1,467.6 506.8,434.9 		
			"/>
		<polyline class="st3" points="277.9,500.3 310.5,467.6 343.2,500.3 376,467.6 408.7,500.3 441.4,467.6 474.1,500.3 506.8,467.6 		
			"/>
	</g>
	<g class="st2">
		<polyline class="st3" points="506.8,304.1 474.1,271.4 441.4,304.1 408.7,271.4 376,304.1 343.2,271.4 310.5,304.1 277.9,271.4 		
			"/>
		<polyline class="st3" points="506.8,336.8 474.1,304.1 441.4,336.8 408.7,304.1 376,336.8 343.2,304.1 310.5,336.8 277.9,304.1 		
			"/>
		<polyline class="st3" points="506.8,369.5 474.1,336.8 441.4,369.5 408.7,336.8 376,369.5 343.2,336.8 310.5,369.5 277.9,336.8 		
			"/>
		<polyline class="st3" points="506.8,402.2 474.1,369.5 441.4,402.2 408.7,369.5 376,402.2 343.2,369.5 310.5,402.2 277.9,369.5 		
			"/>
		<polyline class="st3" points="506.8,434.9 474.1,402.2 441.4,434.9 408.7,402.2 376,434.9 343.2,402.2 310.5,434.9 277.9,402.2 		
			"/>
		<polyline class="st3" points="506.8,467.6 474.1,434.9 441.4,467.6 408.7,434.9 376,467.6 343.2,434.9 310.5,467.6 277.9,434.9 		
			"/>
		<polyline class="st3" points="506.8,500.3 474.1,467.6 441.4,500.3 408.7,467.6 376,500.3 343.2,467.6 310.5,500.3 277.9,467.6 		
			"/>
	</g>
	<g class="st2">
		<rect x="48.9" y="271.4" class="st3" width="228.9" height="228.9"/>
		<line class="st3" x1="48.9" y1="467.6" x2="277.9" y2="467.6"/>
		<line class="st3" x1="48.9" y1="451.3" x2="277.9" y2="451.3"/>
		<line class="st3" x1="48.9" y1="484" x2="277.9" y2="484"/>
		<line class="st3" x1="48.9" y1="434.9" x2="277.9" y2="434.9"/>
		<line class="st3" x1="48.9" y1="418.6" x2="277.9" y2="418.6"/>
		<line class="st3" x1="48.9" y1="402.2" x2="277.9" y2="402.2"/>
		<line class="st3" x1="48.9" y1="385.9" x2="277.9" y2="385.9"/>
		<line class="st3" x1="48.9" y1="369.5" x2="277.9" y2="369.5"/>
		<line class="st3" x1="48.9" y1="353.2" x2="277.9" y2="353.2"/>
		<line class="st3" x1="48.9" y1="336.8" x2="277.9" y2="336.8"/>
		<line class="st3" x1="48.9" y1="320.5" x2="277.9" y2="320.5"/>
		<line class="st3" x1="48.9" y1="304.1" x2="277.9" y2="304.1"/>
		<line class="st3" x1="48.9" y1="287.8" x2="277.9" y2="287.8"/>
		<line class="st3" x1="245.1" y1="271.4" x2="245.1" y2="500.3"/>
		<line class="st3" x1="228.8" y1="271.4" x2="228.8" y2="500.3"/>
		<line class="st3" x1="261.5" y1="271.4" x2="261.5" y2="500.3"/>
		<line class="st3" x1="212.4" y1="271.4" x2="212.4" y2="500.3"/>
		<line class="st3" x1="196.1" y1="271.4" x2="196.1" y2="500.3"/>
		<line class="st3" x1="179.7" y1="271.4" x2="179.7" y2="500.3"/>
		<line class="st3" x1="163.4" y1="271.4" x2="163.4" y2="500.3"/>
		<line class="st3" x1="147" y1="271.4" x2="147" y2="500.3"/>
		<line class="st3" x1="130.7" y1="271.4" x2="130.7" y2="500.3"/>
		<line class="st3" x1="114.3" y1="271.4" x2="114.3" y2="500.3"/>
		<line class="st3" x1="98" y1="271.4" x2="98" y2="500.3"/>
		<line class="st3" x1="81.6" y1="271.4" x2="81.6" y2="500.3"/>
		<line class="st3" x1="65.3" y1="271.4" x2="65.3" y2="500.3"/>
	</g>
	<g class="st2">
		<polyline class="st3" points="48.9,304.1 81.6,271.4 114.3,304.1 147,271.4 179.7,304.1 212.4,271.4 245.1,304.1 277.9,271.4 		
			"/>
		<polyline class="st3" points="48.9,336.8 81.6,304.1 114.3,336.8 147,304.1 179.7,336.8 212.4,304.1 245.1,336.8 277.9,304.1 		
			"/>
		<polyline class="st3" points="48.9,369.5 81.6,336.8 114.3,369.5 147,336.8 179.7,369.5 212.4,336.8 245.1,369.5 277.9,336.8 		
			"/>
		<polyline class="st3" points="48.9,402.2 81.6,369.5 114.3,402.2 147,369.5 179.7,402.2 212.4,369.5 245.1,402.2 277.9,369.5 		
			"/>
		<polyline class="st3" points="48.9,434.9 81.6,402.2 114.3,434.9 147,402.2 179.7,434.9 212.4,402.2 245.1,434.9 277.9,402.2 		
			"/>
		<polyline class="st3" points="48.9,467.6 81.6,434.9 114.3,467.6 147,434.9 179.7,467.6 212.4,434.9 245.1,467.6 277.9,434.9 		
			"/>
		<polyline class="st3" points="48.9,500.3 81.6,467.6 114.3,500.3 147,467.6 179.7,500.3 212.4,467.6 245.1,500.3 277.9,467.6 		
			"/>
	</g>
	<g class="st2">
		<polyline class="st3" points="277.9,304.1 245.1,271.4 212.4,304.1 179.7,271.4 147,304.1 114.3,271.4 81.6,304.1 48.9,271.4 		
			"/>
		<polyline class="st3" points="277.9,336.8 245.1,304.1 212.4,336.8 179.7,304.1 147,336.8 114.3,304.1 81.6,336.8 48.9,304.1 		
			"/>
		<polyline class="st3" points="277.9,369.5 245.1,336.8 212.4,369.5 179.7,336.8 147,369.5 114.3,336.8 81.6,369.5 48.9,336.8 		
			"/>
		<polyline class="st3" points="277.9,402.2 245.1,369.5 212.4,402.2 179.7,369.5 147,402.2 114.3,369.5 81.6,402.2 48.9,369.5 		
			"/>
		<polyline class="st3" points="277.9,434.9 245.1,402.2 212.4,434.9 179.7,402.2 147,434.9 114.3,402.2 81.6,434.9 48.9,402.2 		
			"/>
		<polyline class="st3" points="277.9,467.6 245.1,434.9 212.4,467.6 179.7,434.9 147,467.6 114.3,434.9 81.6,467.6 48.9,434.9 		
			"/>
		<polyline class="st3" points="277.9,500.3 245.1,467.6 212.4,500.3 179.7,467.6 147,500.3 114.3,467.6 81.6,500.3 48.9,467.6 		
			"/>
	</g>
	<g class="st2">
		<rect x="277.9" y="42.5" class="st3" width="228.9" height="228.9"/>
		<line class="st3" x1="277.9" y1="238.7" x2="506.8" y2="238.7"/>
		<line class="st3" x1="277.9" y1="222.4" x2="506.8" y2="222.4"/>
		<line class="st3" x1="277.9" y1="255.1" x2="506.8" y2="255.1"/>
		<line class="st3" x1="277.9" y1="206" x2="506.8" y2="206"/>
		<line class="st3" x1="277.9" y1="189.7" x2="506.8" y2="189.7"/>
		<line class="st3" x1="277.9" y1="173.3" x2="506.8" y2="173.3"/>
		<line class="st3" x1="277.9" y1="157" x2="506.8" y2="157"/>
		<line class="st3" x1="277.9" y1="140.6" x2="506.8" y2="140.6"/>
		<line class="st3" x1="277.9" y1="124.3" x2="506.8" y2="124.3"/>
		<line class="st3" x1="277.9" y1="107.9" x2="506.8" y2="107.9"/>
		<line class="st3" x1="277.9" y1="91.6" x2="506.8" y2="91.6"/>
		<line class="st3" x1="277.9" y1="75.2" x2="506.8" y2="75.2"/>
		<line class="st3" x1="277.9" y1="58.9" x2="506.8" y2="58.9"/>
		<line class="st3" x1="474.1" y1="42.5" x2="474.1" y2="271.4"/>
		<line class="st3" x1="457.7" y1="42.5" x2="457.7" y2="271.4"/>
		<line class="st3" x1="490.4" y1="42.5" x2="490.4" y2="271.4"/>
		<line class="st3" x1="441.4" y1="42.5" x2="441.4" y2="271.4"/>
		<line class="st3" x1="425" y1="42.5" x2="425" y2="271.4"/>
		<line class="st3" x1="408.7" y1="42.5" x2="408.7" y2="271.4"/>
		<line class="st3" x1="392.3" y1="42.5" x2="392.3" y2="271.4"/>
		<line class="st3" x1="376" y1="42.5" x2="376" y2="271.4"/>
		<line class="st3" x1="359.6" y1="42.5" x2="359.6" y2="271.4"/>
		<line class="st3" x1="343.2" y1="42.5" x2="343.2" y2="271.4"/>
		<line class="st3" x1="326.9" y1="42.5" x2="326.9" y2="271.4"/>
		<line class="st3" x1="310.5" y1="42.5" x2="310.5" y2="271.4"/>
		<line class="st3" x1="294.2" y1="42.5" x2="294.2" y2="271.4"/>
	</g>
	<g class="st2">
		<polyline class="st3" points="277.9,75.2 310.5,42.5 343.2,75.2 376,42.5 408.7,75.2 441.4,42.5 474.1,75.2 506.8,42.5 		"/>
		<polyline class="st3" points="277.9,107.9 310.5,75.2 343.2,107.9 376,75.2 408.7,107.9 441.4,75.2 474.1,107.9 506.8,75.2 		"/>
		<polyline class="st3" points="277.9,140.6 310.5,107.9 343.2,140.6 376,107.9 408.7,140.6 441.4,107.9 474.1,140.6 506.8,107.9 		
			"/>
		<polyline class="st3" points="277.9,173.3 310.5,140.6 343.2,173.3 376,140.6 408.7,173.3 441.4,140.6 474.1,173.3 506.8,140.6 		
			"/>
		<polyline class="st3" points="277.9,206 310.5,173.3 343.2,206 376,173.3 408.7,206 441.4,173.3 474.1,206 506.8,173.3 		"/>
		<polyline class="st3" points="277.9,238.7 310.5,206 343.2,238.7 376,206 408.7,238.7 441.4,206 474.1,238.7 506.8,206 		"/>
		<polyline class="st3" points="277.9,271.4 310.5,238.7 343.2,271.4 376,238.7 408.7,271.4 441.4,238.7 474.1,271.4 506.8,238.7 		
			"/>
	</g>
	<g class="st2">
		<polyline class="st3" points="506.8,75.2 474.1,42.5 441.4,75.2 408.7,42.5 376,75.2 343.2,42.5 310.5,75.2 277.9,42.5 		"/>
		<polyline class="st3" points="506.8,107.9 474.1,75.2 441.4,107.9 408.7,75.2 376,107.9 343.2,75.2 310.5,107.9 277.9,75.2 		"/>
		<polyline class="st3" points="506.8,140.6 474.1,107.9 441.4,140.6 408.7,107.9 376,140.6 343.2,107.9 310.5,140.6 277.9,107.9 		
			"/>
		<polyline class="st3" points="506.8,173.3 474.1,140.6 441.4,173.3 408.7,140.6 376,173.3 343.2,140.6 310.5,173.3 277.9,140.6 		
			"/>
		<polyline class="st3" points="506.8,206 474.1,173.3 441.4,206 408.7,173.3 376,206 343.2,173.3 310.5,206 277.9,173.3 		"/>
		<polyline class="st3" points="506.8,238.7 474.1,206 441.4,238.7 408.7,206 376,238.7 343.2,206 310.5,238.7 277.9,206 		"/>
		<polyline class="st3" points="506.8,271.4 474.1,238.7 441.4,271.4 408.7,238.7 376,271.4 343.2,238.7 310.5,271.4 277.9,238.7 		
			"/>
	</g>
	<rect x="0" y="42.8" class="st4" width="48.9" height="228.3"/>
	<polyline class="st4" points="48.9,238.5 48.9,238.5 32.6,238.5 16.3,238.5 16.3,238.5 16.3,238.5 0.6,238.5 0,238.5 	"/>
	<polyline class="st4" points="48.9,222.2 32.6,222.2 32.6,222.2 32.6,222.2 16.3,222.2 0.6,222.2 0,222.2 0,222.2 	"/>
	<polyline class="st4" points="48.9,254.8 32.6,254.8 32.6,254.8 32.6,254.8 16.3,254.8 0.6,254.8 0,254.8 0,254.8 	"/>
	<polyline class="st4" points="48.9,205.9 32.6,205.9 16.3,205.9 0.6,205.9 0,205.9 	"/>
	<polyline class="st4" points="48.9,189.6 32.6,189.6 16.3,189.6 0.6,189.6 0,189.6 0,189.6 	"/>
	<polyline class="st4" points="48.9,173.3 32.6,173.3 16.3,173.3 0.6,173.3 0,173.3 	"/>
	<polyline class="st4" points="48.9,157 32.6,157 16.3,157 0.6,157 0,157 0,157 	"/>
	<polyline class="st4" points="48.9,140.6 32.6,140.6 16.3,140.6 0.6,140.6 0,140.6 	"/>
	<polyline class="st4" points="48.9,124.3 32.6,124.3 32.6,124.3 16.3,124.3 0.6,124.3 0,124.3 0,124.3 	"/>
	<polyline class="st4" points="48.9,108 48.9,108 32.6,108 16.3,108 16.3,108 16.3,108 0.6,108 0,108 	"/>
	<polyline class="st4" points="48.9,91.7 32.6,91.7 16.3,91.7 0.6,91.7 0,91.7 0,91.7 	"/>
	<polyline class="st4" points="48.9,75.4 32.6,75.4 16.3,75.4 0.6,75.4 0,75.4 	"/>
	<polyline class="st4" points="48.9,59.1 32.6,59.1 16.3,59.1 0.6,59.1 0,59.1 0,59.1 	"/>
	<polyline class="st4" points="16.3,271.1 16.3,271.1 16.3,254.8 16.3,238.5 16.3,238.5 16.3,222.2 16.3,205.9 16.3,189.6 
		16.3,173.3 16.3,157 16.3,140.6 16.3,140.6 16.3,124.3 16.3,108 16.3,108 16.3,91.7 16.3,75.4 16.3,59.1 16.3,42.8 	"/>
	<polyline class="st4" points="32.6,271.1 32.6,254.8 32.6,254.8 32.6,238.5 32.6,222.2 32.6,222.2 32.6,205.9 32.6,189.6 
		32.6,173.3 32.6,157 32.6,140.6 32.6,124.3 32.6,124.3 32.6,108 32.6,91.7 32.6,91.7 32.6,75.4 32.6,59.1 32.6,42.8 	"/>
	<polyline class="st4" points="48.9,42.8 32.6,59.1 16.3,75.4 0.6,59.7 0,59.1 0,59.1 	"/>
	<polyline class="st4" points="48.9,75.4 32.6,91.7 32.6,91.7 16.3,108 0.6,92.3 0,91.7 0,91.7 	"/>
	<polyline class="st4" points="48.9,108 48.9,108 48.9,108 32.6,124.3 32.6,124.3 32.6,124.3 16.3,140.6 0.6,124.9 0,124.3 0,124.3 
		0,124.3 	"/>
	<polyline class="st4" points="48.9,140.6 32.6,157 16.3,173.3 0.6,157.5 0,157 0,157 	"/>
	<polyline class="st4" points="48.9,173.3 32.6,189.6 16.3,205.9 0.6,190.1 0,189.6 0,189.6 	"/>
	<polyline class="st4" points="48.9,205.9 32.6,222.2 32.6,222.2 32.6,222.2 16.3,238.5 0.6,222.7 0,222.2 0,222.2 0,222.2 	"/>
	<polyline class="st4" points="48.9,238.5 48.9,238.5 48.9,238.5 32.6,254.8 32.6,254.8 32.6,254.8 16.3,271.1 0.6,255.3 0,254.8 
		0,254.8 0,254.8 	"/>
	<polyline class="st4" points="0,59.1 0,59.1 0.6,58.6 16.3,42.8 32.6,59.1 48.9,75.4 	"/>
	<polyline class="st4" points="0,91.7 0,91.7 0.6,91.2 16.3,75.4 32.6,91.7 32.6,91.7 48.9,108 48.9,108 	"/>
	<polyline class="st4" points="0,124.3 0,124.3 0.6,123.8 16.3,108 16.3,108 16.3,108 16.3,108 32.6,124.3 32.6,124.3 48.9,140.6 	
		"/>
	<polyline class="st4" points="0,157 0,157 0.6,156.4 16.3,140.6 32.6,157 48.9,173.3 	"/>
	<polyline class="st4" points="0,189.6 0,189.6 0.6,189 16.3,173.3 32.6,189.6 48.9,205.9 	"/>
	<polyline class="st4" points="0,222.2 0,222.2 0.6,221.6 16.3,205.9 32.6,222.2 32.6,222.2 32.6,222.2 48.9,238.5 	"/>
	<polyline class="st4" points="0,254.8 0,254.8 0.6,254.2 16.3,238.5 16.3,238.5 16.3,238.5 16.3,238.5 32.6,254.8 32.6,254.8 
		32.6,254.8 48.9,271.1 	"/>
	<rect x="0" y="271.7" class="st4" width="48.9" height="228.3"/>
	<polyline class="st4" points="48.9,467.4 48.9,467.4 32.6,467.4 16.3,467.4 16.3,467.4 16.3,467.4 0.6,467.4 0,467.4 	"/>
	<polyline class="st4" points="48.9,451.1 32.6,451.1 32.6,451.1 32.6,451.1 16.3,451.1 0.6,451.1 0,451.1 0,451.1 	"/>
	<polyline class="st4" points="48.9,483.7 32.6,483.7 32.6,483.7 32.6,483.7 16.3,483.7 0.6,483.7 0,483.7 0,483.7 	"/>
	<polyline class="st4" points="48.9,434.8 32.6,434.8 16.3,434.8 0.6,434.8 0,434.8 	"/>
	<polyline class="st4" points="48.9,418.5 32.6,418.5 16.3,418.5 0.6,418.5 0,418.5 0,418.5 	"/>
	<polyline class="st4" points="48.9,402.2 32.6,402.2 16.3,402.2 0.6,402.2 0,402.2 	"/>
	<polyline class="st4" points="48.9,385.9 32.6,385.9 16.3,385.9 0.6,385.9 0,385.9 0,385.9 	"/>
	<polyline class="st4" points="48.9,369.6 32.6,369.6 16.3,369.6 0.6,369.6 0,369.6 	"/>
	<polyline class="st4" points="48.9,353.3 32.6,353.3 32.6,353.3 16.3,353.3 0.6,353.3 0,353.3 0,353.3 	"/>
	<polyline class="st4" points="48.9,337 48.9,337 32.6,337 16.3,337 16.3,337 16.3,337 0.6,337 0,337 	"/>
	<polyline class="st4" points="48.9,320.6 32.6,320.6 16.3,320.6 0.6,320.6 0,320.6 0,320.6 	"/>
	<polyline class="st4" points="48.9,304.3 32.6,304.3 16.3,304.3 0.6,304.3 0,304.3 	"/>
	<polyline class="st4" points="48.9,288 32.6,288 16.3,288 0.6,288 0,288 0,288 	"/>
	<polyline class="st4" points="16.3,500 16.3,500 16.3,483.7 16.3,467.4 16.3,467.4 16.3,451.1 16.3,434.8 16.3,418.5 16.3,402.2 
		16.3,385.9 16.3,369.6 16.3,369.6 16.3,353.3 16.3,337 16.3,336.9 16.3,320.6 16.3,304.3 16.3,288 16.3,271.7 	"/>
	<polyline class="st4" points="32.6,500 32.6,483.7 32.6,483.7 32.6,467.4 32.6,451.1 32.6,451.1 32.6,434.8 32.6,418.5 32.6,402.2 
		32.6,385.9 32.6,369.6 32.6,353.3 32.6,353.3 32.6,337 32.6,320.7 32.6,320.6 32.6,304.3 32.6,288 32.6,271.7 	"/>
	<polyline class="st4" points="48.9,271.7 32.6,288 16.3,304.3 0.6,288.6 0,288 0,288 	"/>
	<polyline class="st4" points="48.9,304.3 32.6,320.6 32.6,320.7 16.3,336.9 0.6,321.2 0,320.6 0,320.6 	"/>
	<polyline class="st4" points="48.9,336.9 48.9,337 48.9,337 32.6,353.3 32.6,353.3 32.6,353.3 16.3,369.6 0.6,353.8 0,353.3 
		0,353.3 0,353.3 	"/>
	<polyline class="st4" points="48.9,369.6 32.6,385.9 16.3,402.2 0.6,386.4 0,385.9 0,385.9 	"/>
	<polyline class="st4" points="48.9,402.2 32.6,418.5 16.3,434.8 0.6,419 0,418.5 0,418.5 	"/>
	<polyline class="st4" points="48.9,434.8 32.6,451.1 32.6,451.1 32.6,451.1 16.3,467.4 0.6,451.6 0,451.1 0,451.1 0,451.1 	"/>
	<polyline class="st4" points="48.9,467.4 48.9,467.4 48.9,467.4 32.6,483.7 32.6,483.7 32.6,483.7 16.3,500 0.6,484.2 0,483.7 
		0,483.7 0,483.7 	"/>
	<polyline class="st4" points="0,288 0,288 0.6,287.5 16.3,271.7 32.6,288 48.9,304.3 	"/>
	<polyline class="st4" points="0,320.6 0,320.6 0.6,320.1 16.3,304.3 32.6,320.6 32.6,320.7 48.9,336.9 48.9,337 	"/>
	<polyline class="st4" points="0,353.3 0,353.3 0.6,352.7 16.3,337 16.3,336.9 16.3,337 16.3,337 32.6,353.3 32.6,353.3 48.9,369.6 
			"/>
	<polyline class="st4" points="0,385.9 0,385.9 0.6,385.3 16.3,369.6 32.6,385.9 48.9,402.2 	"/>
	<polyline class="st4" points="0,418.5 0,418.5 0.6,417.9 16.3,402.2 32.6,418.5 48.9,434.8 	"/>
	<polyline class="st4" points="0,451.1 0,451.1 0.6,450.5 16.3,434.8 32.6,451.1 32.6,451.1 32.6,451.1 48.9,467.4 	"/>
	<polyline class="st4" points="0,483.7 0,483.7 0.6,483.1 16.3,467.4 16.3,467.4 16.3,467.4 16.3,467.4 32.6,483.7 32.6,483.7 
		32.6,483.7 48.9,500 	"/>
	<rect x="506.8" y="42.5" class="st4" width="48.9" height="228.3"/>
	<polyline class="st4" points="506.8,238.2 506.8,238.2 523.1,238.2 539.4,238.2 539.4,238.2 539.4,238.2 555.1,238.2 555.7,238.2 	
		"/>
	<polyline class="st4" points="506.8,221.9 523.1,221.9 523.1,221.9 523.1,221.9 539.4,221.9 555.1,221.9 555.7,221.9 555.7,221.9 	
		"/>
	<polyline class="st4" points="506.8,254.5 523.1,254.5 523.1,254.5 523.1,254.5 539.4,254.5 555.1,254.5 555.7,254.5 555.7,254.5 	
		"/>
	<polyline class="st4" points="506.8,205.6 523.1,205.6 539.4,205.6 555.1,205.6 555.7,205.6 	"/>
	<polyline class="st4" points="506.8,189.3 523.1,189.3 539.4,189.3 555.1,189.3 555.7,189.3 555.7,189.3 	"/>
	<polyline class="st4" points="506.8,172.9 523.1,172.9 539.4,172.9 555.1,172.9 555.7,172.9 	"/>
	<polyline class="st4" points="506.8,156.6 523.1,156.6 539.4,156.6 555.1,156.6 555.7,156.6 555.7,156.6 	"/>
	<polyline class="st4" points="506.8,140.3 523.1,140.3 539.4,140.3 555.1,140.3 555.7,140.3 	"/>
	<polyline class="st4" points="506.8,124 523.1,124 523.1,124 539.4,124 555.1,124 555.7,124 555.7,124 	"/>
	<polyline class="st4" points="506.8,107.7 506.8,107.7 523.1,107.7 539.4,107.7 539.4,107.7 539.4,107.7 555.1,107.7 555.7,107.7 	
		"/>
	<polyline class="st4" points="506.8,91.4 523.1,91.4 539.4,91.4 555.1,91.4 555.7,91.4 555.7,91.4 	"/>
	<polyline class="st4" points="506.8,75.1 523.1,75.1 539.4,75.1 555.1,75.1 555.7,75.1 	"/>
	<polyline class="st4" points="506.8,58.8 523.1,58.8 539.4,58.8 555.1,58.8 555.7,58.8 555.7,58.8 	"/>
	<polyline class="st4" points="539.4,270.8 539.4,270.8 539.4,254.5 539.4,238.2 539.4,238.2 539.4,221.9 539.4,205.6 539.4,189.3 
		539.4,172.9 539.4,156.6 539.4,140.3 539.4,140.3 539.4,124 539.4,107.7 539.4,107.7 539.4,91.4 539.4,75.1 539.4,58.8 539.4,42.5 
			"/>
	<polyline class="st4" points="523.1,270.8 523.1,254.5 523.1,254.5 523.1,238.2 523.1,221.9 523.1,221.9 523.1,205.6 523.1,189.3 
		523.1,172.9 523.1,156.6 523.1,140.3 523.1,124 523.1,124 523.1,107.7 523.1,91.4 523.1,91.4 523.1,75.1 523.1,58.8 523.1,42.5 	
		"/>
	<polyline class="st4" points="506.8,42.5 523.1,58.8 539.4,75.1 555.1,59.4 555.7,58.8 555.7,58.8 	"/>
	<polyline class="st4" points="506.8,75.1 523.1,91.4 523.1,91.4 539.4,107.7 555.1,92 555.7,91.4 555.7,91.4 	"/>
	<polyline class="st4" points="506.8,107.7 506.8,107.7 506.8,107.7 523.1,124 523.1,124 523.1,124 539.4,140.3 555.1,124.6 
		555.7,124 555.7,124 555.7,124 	"/>
	<polyline class="st4" points="506.8,140.3 523.1,156.6 539.4,172.9 555.1,157.2 555.7,156.6 555.7,156.6 	"/>
	<polyline class="st4" points="506.8,172.9 523.1,189.3 539.4,205.6 555.1,189.8 555.7,189.3 555.7,189.3 	"/>
	<polyline class="st4" points="506.8,205.6 523.1,221.9 523.1,221.9 523.1,221.9 539.4,238.2 555.1,222.4 555.7,221.9 555.7,221.9 
		555.7,221.9 	"/>
	<polyline class="st4" points="506.8,238.2 506.8,238.2 506.8,238.2 523.1,254.5 523.1,254.5 523.1,254.5 539.4,270.8 555.1,255 
		555.7,254.5 555.7,254.5 555.7,254.5 	"/>
	<polyline class="st4" points="555.7,58.8 555.7,58.8 555.1,58.3 539.4,42.5 523.1,58.8 506.8,75.1 	"/>
	<polyline class="st4" points="555.7,91.4 555.7,91.4 555.1,90.9 539.4,75.1 523.1,91.4 523.1,91.4 506.8,107.7 506.8,107.7 	"/>
	<polyline class="st4" points="555.7,124 555.7,124 555.1,123.5 539.4,107.7 539.4,107.7 539.4,107.7 539.4,107.7 523.1,124 
		523.1,124 506.8,140.3 	"/>
	<polyline class="st4" points="555.7,156.6 555.7,156.6 555.1,156.1 539.4,140.3 523.1,156.6 506.8,172.9 	"/>
	<polyline class="st4" points="555.7,189.3 555.7,189.3 555.1,188.7 539.4,172.9 523.1,189.3 506.8,205.6 	"/>
	<polyline class="st4" points="555.7,221.9 555.7,221.9 555.1,221.3 539.4,205.6 523.1,221.9 523.1,221.9 523.1,221.9 506.8,238.2 	
		"/>
	<polyline class="st4" points="555.7,254.5 555.7,254.5 555.1,253.9 539.4,238.2 539.4,238.2 539.4,238.2 539.4,238.2 523.1,254.5 
		523.1,254.5 523.1,254.5 506.8,270.8 	"/>
	<rect x="555.7" y="42.5" class="st4" width="16.3" height="228.3"/>
	<polyline class="st4" points="555.7,238.2 572,238.2 572,238.2 	"/>
	<polyline class="st4" points="555.7,221.9 555.7,221.9 572,221.9 	"/>
	<polyline class="st4" points="555.7,254.5 555.7,254.5 572,254.5 	"/>
	<line class="st4" x1="555.7" y1="205.6" x2="572" y2="205.6"/>
	<line class="st4" x1="555.7" y1="189.2" x2="572" y2="189.2"/>
	<line class="st4" x1="555.7" y1="172.9" x2="572" y2="172.9"/>
	<line class="st4" x1="555.7" y1="156.6" x2="572" y2="156.6"/>
	<line class="st4" x1="555.7" y1="140.3" x2="572" y2="140.3"/>
	<line class="st4" x1="555.7" y1="124" x2="572" y2="124"/>
	<polyline class="st4" points="555.7,107.7 572,107.7 572,107.7 	"/>
	<line class="st4" x1="555.7" y1="91.4" x2="572" y2="91.4"/>
	<line class="st4" x1="555.7" y1="75.1" x2="572" y2="75.1"/>
	<line class="st4" x1="555.7" y1="58.8" x2="572" y2="58.8"/>
	<line class="st4" x1="555.7" y1="58.8" x2="572" y2="42.5"/>
	<line class="st4" x1="555.7" y1="91.4" x2="572" y2="75.1"/>
	<polyline class="st4" points="555.7,124 572,107.7 572,107.7 572,107.7 	"/>
	<line class="st4" x1="555.7" y1="156.6" x2="572" y2="140.3"/>
	<line class="st4" x1="555.7" y1="189.2" x2="572" y2="172.9"/>
	<line class="st4" x1="555.7" y1="221.9" x2="572" y2="205.6"/>
	<polyline class="st4" points="555.7,254.5 572,238.2 572,238.2 572,238.2 	"/>
	<line class="st4" x1="555.7" y1="58.8" x2="572" y2="75.1"/>
	<polyline class="st4" points="572,107.7 572,107.7 555.7,91.4 	"/>
	<line class="st4" x1="555.7" y1="124" x2="572" y2="140.3"/>
	<line class="st4" x1="555.7" y1="156.6" x2="572" y2="172.9"/>
	<line class="st4" x1="555.7" y1="189.2" x2="572" y2="205.6"/>
	<polyline class="st4" points="572,238.2 555.7,221.9 555.7,221.9 	"/>
	<polyline class="st4" points="572,270.8 555.7,254.5 555.7,254.5 	"/>
	<rect x="506.8" y="271.7" class="st4" width="48.9" height="228.3"/>
	<polyline class="st4" points="506.8,467.4 506.8,467.4 523.1,467.4 539.4,467.4 539.4,467.4 539.4,467.4 555.1,467.4 555.7,467.4 	
		"/>
	<polyline class="st4" points="506.8,451.1 523,451.1 523.1,451.1 523.1,451.1 539.4,451.1 555.1,451.1 555.7,451.1 555.7,451.1 	
		"/>
	<polyline class="st4" points="506.8,483.7 523,483.7 523.1,483.7 523.1,483.7 539.4,483.7 555.1,483.7 555.7,483.7 555.7,483.7 	
		"/>
	<polyline class="st4" points="506.8,434.8 523.1,434.8 539.4,434.8 555.1,434.8 555.7,434.8 	"/>
	<polyline class="st4" points="506.8,418.5 523.1,418.5 539.4,418.5 555.1,418.5 555.7,418.5 555.7,418.5 	"/>
	<polyline class="st4" points="506.8,402.2 523.1,402.2 539.4,402.2 555.1,402.2 555.7,402.2 	"/>
	<polyline class="st4" points="506.8,385.9 523.1,385.9 539.4,385.9 555.1,385.9 555.7,385.9 555.7,385.9 	"/>
	<polyline class="st4" points="506.8,369.6 523.1,369.6 539.4,369.6 555.1,369.6 555.7,369.6 	"/>
	<polyline class="st4" points="506.8,353.3 523.1,353.3 523.1,353.3 539.4,353.3 555.1,353.3 555.7,353.3 555.7,353.3 	"/>
	<polyline class="st4" points="506.8,337 506.8,337 523.1,337 539.4,337 539.4,337 539.4,337 555.1,337 555.7,337 	"/>
	<polyline class="st4" points="506.8,320.6 523.1,320.6 539.4,320.6 555.1,320.6 555.7,320.6 555.7,320.6 	"/>
	<polyline class="st4" points="506.8,304.3 523.1,304.3 539.4,304.3 555.1,304.3 555.7,304.3 	"/>
	<polyline class="st4" points="506.8,288 523.1,288 539.4,288 555.1,288 555.7,288 555.7,288 	"/>
	<polyline class="st4" points="539.4,500 539.4,500 539.4,483.7 539.4,467.4 539.4,467.4 539.4,451.1 539.4,434.8 539.4,418.5 
		539.4,402.2 539.4,385.9 539.4,369.6 539.4,369.5 539.4,353.3 539.4,337 539.4,336.9 539.4,320.6 539.4,304.3 539.4,288 
		539.4,271.7 	"/>
	<polyline class="st4" points="523.1,500 523.1,483.7 523.1,483.7 523.1,467.4 523.1,451.1 523.1,451.1 523.1,434.8 523.1,418.5 
		523.1,402.2 523.1,385.9 523.1,369.6 523.1,353.3 523.1,353.2 523.1,337 523.1,320.6 523.1,320.6 523.1,304.3 523.1,288 
		523.1,271.7 	"/>
	<polyline class="st4" points="506.8,271.7 523.1,288 539.4,304.3 555.1,288.6 555.7,288 555.7,288 	"/>
	<polyline class="st4" points="506.8,304.3 523.1,320.6 523.1,320.6 539.4,336.9 555.1,321.2 555.7,320.6 555.7,320.6 	"/>
	<polyline class="st4" points="506.8,336.9 506.8,337 506.8,337 523.1,353.2 523.1,353.3 523.1,353.3 539.4,369.5 555.1,353.8 
		555.7,353.3 555.7,353.2 555.7,353.2 	"/>
	<polyline class="st4" points="506.8,369.6 523.1,385.9 539.4,402.2 555.1,386.4 555.7,385.9 555.7,385.9 	"/>
	<polyline class="st4" points="506.8,402.2 523.1,418.5 539.4,434.8 555.1,419 555.7,418.5 555.7,418.5 	"/>
	<polyline class="st4" points="506.8,434.8 523.1,451.1 523.1,451.1 523.1,451.1 539.4,467.4 555.1,451.6 555.7,451.1 555.7,451.1 
		555.7,451.1 	"/>
	<polyline class="st4" points="506.8,467.4 506.8,467.4 506.8,467.4 523.1,483.7 523.1,483.7 523.1,483.7 539.4,500 555.1,484.2 
		555.7,483.7 555.7,483.7 555.7,483.7 	"/>
	<polyline class="st4" points="555.7,288 555.7,288 555.1,287.5 539.4,271.7 523.1,288 506.8,304.3 	"/>
	<polyline class="st4" points="555.7,320.6 555.7,320.6 555.1,320.1 539.4,304.3 523.1,320.6 523.1,320.6 506.8,336.9 506.8,337 	
		"/>
	<polyline class="st4" points="555.7,353.2 555.7,353.2 555.1,352.7 539.4,337 539.4,336.9 539.4,337 539.4,337 523.1,353.2 
		523.1,353.3 506.8,369.6 	"/>
	<polyline class="st4" points="555.7,385.9 555.7,385.9 555.1,385.3 539.4,369.6 523.1,385.9 506.8,402.2 	"/>
	<polyline class="st4" points="555.7,418.5 555.7,418.5 555.1,417.9 539.4,402.2 523.1,418.5 506.8,434.8 	"/>
	<polyline class="st4" points="555.7,451.1 555.7,451.1 555.1,450.5 539.4,434.8 523.1,451.1 523.1,451.1 523,451.1 506.8,467.4 	
		"/>
	<polyline class="st4" points="555.7,483.7 555.7,483.7 555.1,483.1 539.4,467.4 539.4,467.4 539.4,467.4 539.4,467.4 523.1,483.7 
		523.1,483.7 523,483.7 506.8,500 	"/>
	<rect x="555.7" y="271.7" class="st4" width="16.3" height="228.3"/>
	<polyline class="st4" points="555.7,467.4 572,467.4 572,467.4 	"/>
	<polyline class="st4" points="555.7,451.1 555.7,451.1 572,451.1 	"/>
	<polyline class="st4" points="555.7,483.7 555.7,483.7 572,483.7 	"/>
	<line class="st4" x1="555.7" y1="434.8" x2="572" y2="434.8"/>
	<line class="st4" x1="555.7" y1="418.5" x2="572" y2="418.5"/>
	<line class="st4" x1="555.7" y1="402.2" x2="572" y2="402.2"/>
	<line class="st4" x1="555.7" y1="385.9" x2="572" y2="385.9"/>
	<line class="st4" x1="555.7" y1="369.6" x2="572" y2="369.6"/>
	<line class="st4" x1="555.7" y1="353.3" x2="572" y2="353.3"/>
	<polyline class="st4" points="555.7,336.9 572,336.9 572,336.9 	"/>
	<line class="st4" x1="555.7" y1="320.6" x2="572" y2="320.6"/>
	<line class="st4" x1="555.7" y1="304.3" x2="572" y2="304.3"/>
	<line class="st4" x1="555.7" y1="288" x2="572" y2="288"/>
	<line class="st4" x1="555.7" y1="288" x2="572" y2="271.7"/>
	<line class="st4" x1="555.7" y1="320.6" x2="572" y2="304.3"/>
	<polyline class="st4" points="555.7,353.2 572,336.9 572,336.9 572,336.9 	"/>
	<line class="st4" x1="555.7" y1="385.9" x2="572" y2="369.6"/>
	<line class="st4" x1="555.7" y1="418.5" x2="572" y2="402.2"/>
	<line class="st4" x1="555.7" y1="451.1" x2="572" y2="434.8"/>
	<polyline class="st4" points="555.7,483.7 572,467.4 572,467.4 572,467.4 	"/>
	<line class="st4" x1="555.7" y1="288" x2="572" y2="304.3"/>
	<polyline class="st4" points="572,336.9 572,336.9 555.7,320.6 	"/>
	<line class="st4" x1="555.7" y1="353.3" x2="572" y2="369.6"/>
	<line class="st4" x1="555.7" y1="385.9" x2="572" y2="402.2"/>
	<line class="st4" x1="555.7" y1="418.5" x2="572" y2="434.8"/>
	<polyline class="st4" points="572,467.4 555.7,451.1 555.7,451.1 	"/>
	<polyline class="st4" points="572,500 555.7,483.7 555.7,483.7 	"/>
</g>
<rect x="277.2" y="0.3" class="st5" width="18.2" height="74.8"/>
</svg>
